<svg width="24" height="24" viewBox="0 0 24 24" fill="none" xmlns="http://www.w3.org/2000/svg">
<path d="M21.085 14.6138C18.3031 16.1217 15.1816 16.9185 12 16.9185C8.81844 16.9185 5.69688 16.1217 2.91504 14.6138V18C2.91504 18.5992 3.40077 19.085 4 19.085H20C20.5992 19.085 21.085 18.5992 21.085 18V14.6138ZM12.0098 11.085C12.5151 11.085 12.9248 11.4947 12.9248 12C12.9248 12.5053 12.5151 12.915 12.0098 12.915H12C11.4947 12.915 11.085 12.5053 11.085 12C11.085 11.4947 11.4947 11.085 12 11.085H12.0098ZM21.085 8C21.085 7.40077 20.5992 6.91504 20 6.91504H4C3.40077 6.91504 2.91504 7.40077 2.91504 8V12.4985C5.64044 14.1892 8.78634 15.0884 12 15.0884C15.2137 15.0884 18.3596 14.1892 21.085 12.4985V8ZM15.085 4C15.085 3.71224 14.9706 3.43639 14.7671 3.23291C14.5636 3.02943 14.2878 2.91504 14 2.91504H10C9.71224 2.91504 9.43639 3.02943 9.23291 3.23291C9.02943 3.43639 8.91504 3.71224 8.91504 4V5.08496H15.085V4ZM16.915 5.08496H20C21.6099 5.08496 22.915 6.39009 22.915 8V18C22.915 19.6099 21.6099 20.915 20 20.915H4C2.39009 20.915 1.08496 19.6099 1.08496 18V8C1.08496 6.39009 2.39009 5.08496 4 5.08496H7.08496V4C7.08496 3.22689 7.3923 2.48563 7.93896 1.93896C8.48563 1.3923 9.22689 1.08496 10 1.08496H14C14.7731 1.08496 15.5144 1.3923 16.061 1.93896C16.6077 2.48563 16.915 3.22689 16.915 4V5.08496Z" fill="black"/>
</svg>
