<svg width="24" height="24" viewBox="0 0 24 24" fill="none" xmlns="http://www.w3.org/2000/svg">
<path d="M22.915 13C22.915 13.5053 22.5053 13.915 21.9999 13.915C21.4946 13.915 21.0849 13.5053 21.0849 13V9.20898L14.1469 16.147C13.7896 16.5043 13.2103 16.5043 12.853 16.147L8.49993 11.7939L2.6469 17.647C2.28957 18.0043 1.71029 18.0043 1.35296 17.647C0.995629 17.2896 0.995629 16.7104 1.35296 16.353L7.85296 9.85303L7.92229 9.79004C8.28168 9.49691 8.8119 9.51803 9.1469 9.85303L13.4999 14.2061L19.7909 7.91504H15.9999C15.4946 7.91504 15.0849 7.50534 15.0849 7C15.0849 6.49466 15.4946 6.08496 15.9999 6.08496H21.9999C22.5053 6.08496 22.915 6.49466 22.915 7V13Z" fill="black"/>
</svg>
